<svg width="19" height="23" viewBox="0 0 19 23" fill="none" xmlns="http://www.w3.org/2000/svg">
<path fill-rule="evenodd" clip-rule="evenodd" d="M9.4978 0.625274C9.66478 0.601146 9.83436 0.601146 10.0013 0.625274C10.1925 0.652899 10.3714 0.720309 10.5395 0.783634C10.5532 0.788822 10.5669 0.793983 10.5806 0.799092L15.9983 2.83073C16.0369 2.84522 16.0751 2.8595 16.1128 2.87359C16.7565 3.11434 17.2595 3.30247 17.6441 3.64141C17.9817 3.93893 18.2418 4.31419 18.4018 4.73475C18.5841 5.21387 18.5837 5.75094 18.5831 6.43823C18.583 6.47846 18.583 6.5192 18.583 6.56047V11.3927C18.583 14.1519 17.0814 16.4713 15.4231 18.1989C13.7564 19.9352 11.8455 21.1649 10.8328 21.7557C10.8202 21.763 10.8075 21.7704 10.7948 21.7779C10.605 21.8891 10.3966 22.0112 10.1187 22.0708C9.89253 22.1193 9.60661 22.1193 9.38045 22.0708C9.10258 22.0112 8.8941 21.8891 8.70436 21.7779C8.69162 21.7704 8.67896 21.763 8.66637 21.7557C7.65363 21.1649 5.74269 19.9352 4.07602 18.1989C2.4177 16.4713 0.916157 14.1519 0.916157 11.3927V6.56047C0.916157 6.5192 0.916121 6.47846 0.916085 6.43823C0.915475 5.75094 0.914998 5.21387 1.09732 4.73475C1.25735 4.31419 1.51741 3.93893 1.855 3.64141C2.2396 3.30247 2.74264 3.11434 3.38638 2.87359C3.42406 2.85949 3.46222 2.84522 3.50087 2.83073L8.91857 0.799092C8.9322 0.793983 8.9459 0.788822 8.95967 0.783633C9.12773 0.720308 9.30663 0.652898 9.4978 0.625274ZM9.78682 2.10985C9.76211 2.10629 9.73703 2.10629 9.71233 2.10985C9.71571 2.10937 9.70699 2.10981 9.66539 2.12344C9.61774 2.13907 9.55589 2.1621 9.44526 2.20359L4.02755 4.23522C3.21367 4.54043 2.99708 4.63429 2.84676 4.76676C2.69192 4.90322 2.57265 5.07533 2.49925 5.26822C2.42799 5.45549 2.41616 5.69124 2.41616 6.56047V11.3927C2.41616 13.5932 3.6195 15.5572 5.15817 17.1602C6.68848 18.7544 8.46662 19.9025 9.42224 20.4601C9.5425 20.5302 9.59928 20.5628 9.64417 20.5847C9.67373 20.5991 9.68418 20.6018 9.69341 20.6038C9.69441 20.604 9.69879 20.6046 9.70669 20.6054C9.71838 20.6064 9.73318 20.6072 9.74957 20.6072C9.76596 20.6072 9.78076 20.6064 9.79245 20.6054C9.80486 20.6042 9.80857 20.6032 9.80418 20.6041C9.81384 20.6021 9.82374 20.5999 9.85497 20.5847C9.89986 20.5628 9.95664 20.5302 10.0769 20.4601C11.0325 19.9025 12.8107 18.7544 14.341 17.1602C15.8796 15.5572 17.083 13.5932 17.083 11.3927V6.56047C17.083 5.69124 17.0712 5.45549 16.9999 5.26822C16.9265 5.07533 16.8072 4.90322 16.6524 4.76676C16.5021 4.63429 16.2855 4.54043 15.4716 4.23522L10.0539 2.20359C9.94326 2.1621 9.8814 2.13907 9.83375 2.12344C9.79216 2.10981 9.78344 2.10937 9.78682 2.10985ZM13.8164 7.83113C14.1093 8.12402 14.1093 8.59889 13.8164 8.89179L9.26947 13.4387C8.97658 13.7316 8.50171 13.7316 8.20881 13.4387L6.18796 11.4179C5.89507 11.125 5.89507 10.6501 6.18796 10.3572C6.48085 10.0643 6.95573 10.0643 7.24862 10.3572L8.73915 11.8477L12.7557 7.83113C13.0486 7.53823 13.5235 7.53823 13.8164 7.83113Z" fill="black"/>
</svg>
