<svg width="23" height="23" viewBox="0 0 23 23" fill="none" xmlns="http://www.w3.org/2000/svg">
<g clip-path="url(#clip0_1_4491)">
<path fill-rule="evenodd" clip-rule="evenodd" d="M20.1267 7.81831C18.1722 3.09988 12.7628 0.859226 8.04438 2.81366C3.32596 4.7681 1.0853 10.1775 3.03974 14.896C4.99417 19.6144 10.4036 21.855 15.122 19.9006C19.8405 17.9462 22.0811 12.5367 20.1267 7.81831ZM7.47036 1.42784C12.9542 -0.843619 19.241 1.76049 21.5125 7.24428C23.784 12.7281 21.1798 19.015 15.6961 21.2864C10.2123 23.5579 3.92538 20.9538 1.65392 15.47C-0.617547 9.98618 1.98656 3.6993 7.47036 1.42784Z" fill="#6C6893"/>
<path fill-rule="evenodd" clip-rule="evenodd" d="M8.57884 5.71753C8.57884 5.30332 8.91463 4.96753 9.32884 4.96753H13.8408C14.255 4.96753 14.5908 5.30332 14.5908 5.71753V8.35204H17.2253C17.6395 8.35204 17.9753 8.68782 17.9753 9.10204V13.6139C17.9753 14.0282 17.6395 14.3639 17.2253 14.3639H14.5908V16.9985C14.5908 17.4127 14.255 17.7485 13.8408 17.7485H9.32884C8.91463 17.7485 8.57884 17.4127 8.57884 16.9985V14.3639H5.94434C5.53012 14.3639 5.19434 14.0282 5.19434 13.6139V9.10204C5.19434 8.68782 5.53012 8.35204 5.94434 8.35204H8.57884V5.71753ZM10.0788 6.46753V9.10204C10.0788 9.51625 9.74306 9.85204 9.32884 9.85204H6.69434V12.8639H9.32884C9.74306 12.8639 10.0788 13.1997 10.0788 13.6139V16.2485H13.0908V13.6139C13.0908 13.1997 13.4265 12.8639 13.8408 12.8639H16.4753V9.85204H13.8408C13.4265 9.85204 13.0908 9.51625 13.0908 9.10204V6.46753H10.0788Z" fill="#6C6893"/>
</g>
<defs>
<clipPath id="clip0_1_4491">
<rect width="23" height="23" fill="white"/>
</clipPath>
</defs>
</svg>
