<svg width="22" height="16" viewBox="0 0 22 16" fill="none" xmlns="http://www.w3.org/2000/svg">
<path fill-rule="evenodd" clip-rule="evenodd" d="M17.5399 0.339919L18.9999 0.489919C20.7284 0.685289 22.0264 2.16064 21.9999 3.89992V12.0999C22.0264 13.8392 20.7284 15.3146 18.9999 15.5099L17.5999 15.6599C13.2315 16.1099 8.82835 16.1099 4.45991 15.6599L2.99991 15.5099C1.27143 15.3146 -0.0265364 13.8392 -9.13595e-05 12.0999V3.89992C-0.0265364 2.16064 1.27143 0.685289 2.99991 0.489919L4.39991 0.339919C8.76835 -0.110051 13.1715 -0.110051 17.5399 0.339919ZM10.1099 11.2199L13.9999 8.6199H14.0599C14.2695 8.4833 14.3959 8.2501 14.3959 7.9999C14.3959 7.7497 14.2695 7.5165 14.0599 7.3799L10.1699 4.77992C9.9402 4.62469 9.6437 4.60879 9.3987 4.73859C9.1538 4.86839 9.0004 5.12271 8.99991 5.39992V10.5999C9.0128 10.858 9.1576 11.0913 9.3832 11.2173C9.6088 11.3433 9.8834 11.3443 10.1099 11.2199Z" fill="white"/>
</svg>
