<svg width="428" height="480" viewBox="0 0 428 480" fill="none" xmlns="http://www.w3.org/2000/svg">
<g clip-path="url(#clip0_1_4513)">
<path d="M293.825 136.796C296 138.783 294.77 142.284 293.73 144.649C292.311 147.582 290.23 150.136 288.716 153.069C284.65 160.922 281.812 169.437 279.542 177.952C278.785 181.453 278.123 185.049 277.839 188.643C277.839 194.32 278.691 198.578 273.11 201.983C266.961 206.998 260.719 212.013 255.516 218.068C253.436 220.528 251.45 222.988 249.368 225.448C249.557 226.394 249.368 227.718 248.801 228.665C248.233 230.557 246.625 232.26 244.828 231.693C239.342 230.462 240.288 226.205 242.084 222.042C242.084 221.947 242.084 221.852 242.179 221.852C242.557 219.865 243.22 218.163 243.882 216.554C244.071 216.081 244.355 215.703 244.638 215.418C244.638 215.135 244.733 214.945 244.733 214.757C245.584 209.363 246.72 204.065 247.76 198.767C247.855 198.389 247.95 198.01 248.043 197.631C247.855 196.118 247.571 194.604 247.098 193.185C246.625 191.576 245.774 190.157 244.923 188.738C244.544 188.928 244.071 188.928 243.693 188.548C241.801 186.468 239.247 183.44 238.585 180.412C237.544 179.655 236.41 179.087 235.18 179.087C233.761 180.034 233.098 178.236 233.478 176.439C229.883 176.249 226.288 177.668 222.694 177.1C218.248 176.627 217.492 171.234 213.708 170.383C210.587 170.1 207.843 172.465 204.628 172.275C199.047 172.654 198.574 167.166 194.696 167.45C191.953 168.112 189.778 170.194 187.034 171.046C180.602 173.316 183.439 166.883 173.887 171.614C165.562 175.398 159.415 181.737 161.496 167.072C162.062 161.395 162.062 155.719 162.63 150.042C163.198 146.351 164.049 142.662 163.765 138.877C162.347 137.742 160.833 136.417 159.036 135.85C158.657 136.039 158.374 136.039 158.09 135.85C157.806 136.228 157.523 136.607 157.05 136.89C155.347 137.742 155.158 135.093 155.442 134.052C155.725 131.592 156.388 129.132 157.712 127.051C158.847 126.01 159.036 124.402 159.793 123.077C161.779 120.049 163.009 123.361 162.062 125.442C165.089 126.389 167.738 128.281 170.008 130.456C170.86 131.309 171.616 132.348 172.751 132.916C179.561 135.566 186.656 126.956 190.251 121.942C189.588 119.387 188.642 116.928 187.791 114.467C187.224 112.954 186.656 111.44 185.899 110.02C184.764 108.791 184.764 106.899 185.332 105.479C186.183 103.398 187.224 102.547 189.305 103.966C191.574 105.29 193.844 106.614 196.21 107.75C198.574 108.885 200.939 109.926 203.209 111.061C205.479 111.913 207.276 113.521 207.938 115.887C209.262 114.089 211.06 115.129 211.816 116.833C212.479 117.401 212.951 118.441 213.235 119.576C215.411 120.617 217.114 127.429 219.194 128.754C227.991 135.85 226.573 134.998 226.1 145.69C226.951 149.569 231.112 151.555 234.329 153.258C235.369 153.921 237.639 154.488 239.247 155.34C241.328 155.34 243.315 155.34 245.301 154.961C245.679 154.867 246.057 154.772 246.436 154.678C246.53 152.596 246.814 150.325 246.72 149.569C246.625 138.12 261.287 142.094 268.097 137.836C271.029 135.282 275.191 135.566 278.879 135.566C281.623 135.566 284.46 135.376 287.204 135.755C289.284 135.849 291.743 135.755 293.825 136.796Z" fill="#FF926F"/>
<path d="M209.926 117.305C200.75 116.264 198.007 103.208 202.547 96.3009C205.196 92.3272 210.398 93.6516 214.182 94.787C215.222 86.5557 218.059 78.1352 223.735 71.8909C225.437 70.0932 233.005 62.3351 233.289 68.3902C233.477 69.9986 232.816 71.7015 231.208 72.0801C223.735 76.243 219.478 84.3797 217.776 92.5164C216.263 99.0447 218.249 102.545 209.831 99.707C200.655 98.0041 202.642 110.303 209.831 111.061C211.155 111.249 212.479 111.249 213.709 110.776C214.182 110.588 214.654 110.966 214.844 111.344C216.641 115.602 214.465 117.967 209.926 117.305Z" fill="#0A044B"/>
<path d="M240.571 156.192C234.422 155.151 227.139 151.839 224.775 145.689C224.112 142.567 225.341 139.539 225.153 136.417C221.653 134.241 218.153 131.876 215.789 128.47C213.045 124.023 211.154 118.063 212.667 112.954C213.896 110.777 215.221 113.427 215.032 114.846C214.464 119.576 217.113 124.307 220.802 127.24C222.788 129.227 226.004 129.889 227.423 132.443C228.748 135.85 228.085 139.634 227.707 143.135C231.112 147.392 240.003 151.933 245.205 149.38C246.625 145.973 244.165 141.811 246.34 138.593C248.422 137.079 252.584 138.783 255.326 138.12C271.312 134.714 271.312 116.738 268.285 103.871C267.812 102.262 266.772 96.964 269.704 97.5316C271.502 99.7077 271.595 104.911 272.258 107.75C274.907 124.875 270.366 146.636 248.705 144.176C248.894 150.136 248.611 157.421 240.571 156.192Z" fill="#0A044B"/>
<path d="M270.557 90.3405C268.95 87.313 268.76 83.4339 266.774 80.5009C263.463 75.108 257.504 71.2289 251.166 71.0396C248.139 71.5127 247.666 68.2013 248.612 66.0251C249.086 64.2275 255.518 65.836 256.937 66.309C265.071 69.0528 270.463 76.6218 272.26 84.7585C275.665 84.6639 278.219 81.9201 279.165 78.7978C279.732 73.4995 275.665 68.9581 273.868 64.1329C271.976 60.0645 272.355 55.4285 270.746 51.2655C269.138 46.6295 263.557 45.4942 259.491 47.481C254.193 49.6571 255.045 55.5233 253.437 59.97C252.68 61.2001 251.356 60.3484 251.072 59.2131C250.22 56.6585 251.261 54.0094 251.639 51.455C252.301 48.3328 253.625 45.1158 255.991 42.8451C260.531 38.6822 268.855 38.7767 272.07 44.4534C274.909 48.6164 274.814 53.8202 276.043 58.5509C277.178 61.9569 279.165 64.9843 280.583 68.2958C282.665 73.2156 283.705 79.0818 281.246 84.0962C279.543 88.07 274.814 92.6112 270.557 90.3405Z" fill="#0A044B"/>
<path d="M204.438 84.1909C203.113 83.5287 202.925 81.6364 203.019 80.2173C203.019 78.5142 204.249 77.2842 205.1 75.8649C207.086 72.6481 208.032 68.8637 209.167 65.2684C212.384 54.9557 219.762 52.4957 229.977 52.2119C232.436 52.3065 234.99 52.7796 237.449 52.7796C239.057 53.7258 238.868 56.4695 238.112 57.9833C236.882 59.2133 234.8 58.4565 233.287 58.5511C228.653 58.7403 223.923 59.024 219.382 60.3487C214.654 61.6732 213.423 64.8899 211.816 69.2421C211.154 71.8912 207.371 84.1909 204.438 84.1909Z" fill="#0A044B"/>
<path d="M193.184 88.1641C189.211 86.7449 187.319 82.4875 185.994 78.7975C183.535 72.2693 184.86 64.795 189.684 59.6859C194.319 53.7253 198.292 38.9656 208.317 44.6424C211.156 46.3455 213.898 49.6569 212.574 53.1575C211.25 56.5636 209.547 52.7792 208.223 51.6438C200.561 45.494 196.494 57.6043 193.278 62.6188C191.575 65.5517 188.36 67.8225 188.17 71.4177C188.265 75.486 190.251 80.9736 194.413 82.2981C197.251 81.4466 196.967 89.9618 193.184 88.1641Z" fill="#0A044B"/>
<path d="M238.586 102.64C235.937 101.789 234.708 94.9766 236.599 92.9898C238.113 87.6915 241.233 91.8544 241.518 95.1659C241.896 97.6258 241.991 102.735 238.586 102.64Z" fill="#0A044B"/>
<path d="M263.368 104.627C259.773 104.154 258.448 91.9486 262.8 92.2324C265.921 93.6516 267.434 103.681 263.368 104.627Z" fill="#0A044B"/>
<path d="M253.812 111.25C252.582 110.682 252.488 108.98 252.582 107.749C252.582 106.141 253.907 105.006 254.38 103.492C252.866 100.748 247.758 92.517 251.636 90.4355C252.771 90.6248 252.866 91.9494 253.15 92.8009C253.907 95.0716 255.041 97.0584 256.271 99.0452C258.068 101.599 257.785 104.817 256.555 107.466C255.893 108.885 255.42 111.25 253.812 111.25Z" fill="#0A044B"/>
<path d="M244.26 117.589C244.26 117.494 244.355 117.399 244.355 117.305C244.355 117.399 244.26 117.494 244.26 117.589ZM250.408 124.401C247.855 123.55 243.787 122.792 243.976 119.293C243.976 118.252 244.26 116.265 245.584 116.453C249.084 118.913 253.624 119.481 257.787 118.913C259.016 119.103 259.205 120.805 259.205 121.846C259.205 122.887 259.016 124.496 257.787 124.78C255.421 125.064 252.868 124.969 250.408 124.401Z" fill="#0A044B"/>
<path d="M240.194 228.758C237.355 226.11 241.707 215.796 242.18 212.012C242.747 209.269 243.126 206.525 243.599 203.781C244.072 200.848 244.733 197.821 245.207 194.887C245.68 193.468 245.018 192.238 243.882 191.387C236.599 187.413 239.531 185.237 235.275 181.736C233.383 180.98 231.491 181.168 229.505 181.453C228.276 181.547 227.14 181.736 225.91 181.641C216.641 180.412 220.708 170.005 206.141 174.167C201.412 175.776 199.426 173.978 197.723 172.18C195.831 170.193 194.318 168.112 189.589 170.856C183.818 174.357 181.737 173.789 179.468 173.221C177.859 172.843 176.251 172.37 173.319 173.411C170.576 174.735 168.306 177.006 165.563 178.235C164.333 178.708 163.009 178.898 161.969 179.655C157.428 184.574 157.523 193.657 156.672 199.996C156.672 203.686 156.199 207.471 156.86 211.161C157.523 213.336 155.347 217.216 154.213 213.336C152.794 202.456 153.74 186.183 158.753 176.343C160.172 173.884 162.726 172.748 165.374 171.992C167.833 170.571 169.914 168.679 172.468 167.45C175.778 165.368 179.278 167.45 182.683 167.545C186.467 166.693 189.494 163.854 193.277 163.381C197.155 163.003 198.385 167.828 201.696 168.679C208.222 168.396 214.654 164.706 219.763 171.045C221.276 172.748 222.41 175.208 224.964 175.586C226.383 175.681 227.708 175.586 229.032 175.492C233.477 175.208 237.45 174.924 239.626 180.695C241.328 185.71 246.72 185.047 247.95 191.008C248.517 193.752 247.95 196.495 247.477 199.24C246.341 205.106 245.585 211.066 244.166 216.837C243.504 219.297 242.653 222.514 242.274 224.879C242.085 225.637 241.991 227.244 241.518 228.19C241.233 228.475 240.95 228.758 240.76 229.043C240.667 229.043 240.572 229.136 240.477 229.136C240.572 228.853 240.382 228.853 240.194 228.758Z" fill="#0A044B"/>
<path d="M196.776 310.694C182.588 310.221 168.684 302.651 160.454 291.203C155.441 283.729 154.59 274.173 154.685 265.374C154.779 259.602 155.063 253.736 155.063 247.965C155.441 245.033 153.834 232.732 157.332 232.449C159.414 233.773 158.184 236.517 157.995 238.409C157.9 241.247 157.995 244.18 157.995 247.019C158.09 271.996 153.266 286.472 179.183 299.812C185.615 302.651 192.804 304.544 199.803 303.881C209.83 301.421 219.667 295.177 224.87 286.094C228.463 279.944 230.261 272.849 230.45 265.752C230.923 261.873 229.977 257.521 231.395 253.831C235.274 250.33 233.382 264.049 233.571 265.658C233.193 277.957 229.409 291.109 220.14 299.624C213.708 305.111 205.667 310.504 196.776 310.694Z" fill="#0A044B"/>
<path d="M192.709 277.201C192.709 277.296 192.709 277.296 192.805 277.392C192.709 277.296 192.709 277.296 192.709 277.201Z" fill="#0A044B"/>
<path d="M188.927 125.536C187.035 124.495 185.994 118.062 184.954 115.791C182.967 110.02 181.076 104.342 178.805 98.666C172.468 84.5688 163.199 71.7015 152.037 61.0102C150.145 60.3479 150.145 54.3873 152.604 55.3335C159.226 60.4425 164.333 67.1601 169.441 73.6884C175.685 82.2036 181.076 91.2863 184.481 101.315C186.467 106.802 188.454 112.385 190.25 117.872C191.102 119.954 192.142 125.252 188.927 125.536Z" fill="#0A044B"/>
<path d="M174.073 138.593C157.899 124.307 148.157 104.06 140.684 84.1912C138.887 77.9468 133.779 68.0125 135.009 61.7681C136.522 58.4567 138.225 62.4303 137.563 64.3226C143.522 84.5697 152.318 104.344 165.182 121.185C167.926 124.685 170.953 128.091 174.263 130.93C175.114 131.592 175.966 132.255 176.154 133.39C176.722 134.998 176.533 139.351 174.073 138.593Z" fill="#0A044B"/>
<path d="M201.129 111.534C195.17 108.79 188.738 106.804 183.062 103.586C181.928 102.167 181.833 99.6129 183.157 98.2883C183.535 98.0045 183.914 98.1937 184.198 98.4776C186.657 99.7075 189.211 100.559 191.765 101.599C193.751 102.64 202.358 105.005 202.548 106.804C203.115 108.223 203.21 111.534 201.129 111.534Z" fill="#0A044B"/>
<path d="M160.265 166.219C158.657 164.894 159.035 162.434 159.319 160.637C159.886 154.866 161.022 149 160.927 143.134C160.832 142.093 161.022 140.863 159.792 140.485C157.9 139.539 156.008 138.687 154.495 137.268C149.387 131.78 156.103 125.063 157.522 119.386C158.468 115.507 160.927 117.304 160.643 120.427C159.603 124.401 157.711 128.091 156.197 131.875C157.711 133.011 159.508 133.767 161.21 134.618C165.94 137.93 163.954 147.487 163.764 152.595C163.197 154.582 163.481 168.112 160.265 166.219Z" fill="#0A044B"/>
<path d="M278.973 195.455C274.906 192.9 279.73 176.91 280.487 172.464C283.419 161.205 288.337 150.608 294.108 140.58C287.297 140.485 280.581 140.012 273.771 139.539C272.919 139.444 271.88 139.634 271.406 138.687C270.744 137.174 270.555 134.525 272.163 133.579C280.203 133.199 288.244 133.862 296.283 133.767C304.701 134.808 293.73 150.514 292.027 154.488C287.959 162.341 285.122 170.761 283.041 179.371C282.473 182.398 281.905 185.332 281.527 188.359C281.054 190.44 282 195.36 278.973 195.455Z" fill="#0A044B"/>
<path d="M289.096 155.812C287.866 152.974 289.285 150.893 291.933 149.852C296 147.676 300.351 145.878 304.608 143.986C315.769 139.255 327.121 135.187 338.282 130.646C344.241 128.281 350.2 126.104 356.537 124.874C358.902 124.779 358.808 130.173 357.01 130.834C348.213 132.443 340.078 136.039 331.755 139.255C323.242 142.567 314.729 145.688 306.31 149.095C301.392 151.082 296.568 153.069 291.839 155.529C290.892 156.097 289.758 157.421 289.096 155.812Z" fill="#0A044B"/>
<path d="M279.731 182.21C279.069 180.791 278.974 177.858 280.772 177.29C281.623 177.195 282.569 177.005 283.42 176.912C289.474 175.871 295.338 174.073 301.108 171.897C325.606 163.004 347.456 148.906 369.401 135.281C371.577 134.525 371.672 138.499 371.293 139.823C371.104 140.391 370.914 141.053 370.347 141.432C362.686 145.878 355.308 150.609 347.646 155.245C334.309 163.287 320.593 170.572 306.122 176.154C303 177.479 281.055 185.332 279.731 182.21Z" fill="#0A044B"/>
<path d="M117.039 336.995C111.741 336.144 106.35 335.292 101.621 332.738C98.7828 331.129 94.9993 329.994 93.8642 326.494C92.2562 320.344 92.5399 313.91 92.4453 307.665C92.4453 298.488 92.3507 289.311 92.0669 280.133C91.8777 263.86 89.4185 243.707 97.7422 229.138C99.3503 226.393 102.188 224.879 104.931 223.555C108.904 221.474 112.971 219.298 117.039 217.5C128.767 212.297 140.97 208.133 153.171 203.97C154.117 203.687 155.347 203.402 155.725 204.538C156.388 205.862 156.481 208.795 154.779 209.269C152.036 209.931 149.388 211.256 146.644 212.107C135.767 216.176 124.889 220.055 114.39 225.164C109.755 228.002 102.188 230.177 99.3503 234.814C93.6749 245.789 94.9047 260.075 94.9993 272.186C94.9993 272.091 94.9993 271.996 94.9993 271.903V271.808C94.9993 272.469 94.9993 272.564 95.0938 273.132C95.0938 273.037 95.0938 273.037 95.0938 272.942C95.5667 285.148 95.7559 297.352 95.7559 309.558C95.7559 313.247 95.8506 317.033 96.2289 320.722C96.418 321.574 96.2289 322.709 97.0802 323.371C103.229 327.44 110.417 329.805 117.7 330.467C122.62 328.574 125.362 323.276 128.106 319.114C138.889 299.434 142.766 275.308 136.145 253.642C135.767 249.857 132.457 242.856 134.821 239.734C137.564 237.274 138.131 248.344 138.889 249.763C139.55 252.696 140.307 255.534 140.97 258.467C145.131 277.295 141.536 297.069 134.726 314.856C131.984 321.195 124.889 336.333 117.039 336.995Z" fill="#0A044B"/>
<path d="M141.538 275.592C138.133 269.82 145.038 268.306 149.389 267.928C153.929 267.928 158.565 267.172 156.578 273.51C155.916 275.213 153.929 273.983 152.605 274.078C149.484 273.889 146.173 274.172 143.335 275.497C142.674 275.781 142.011 276.254 141.538 275.592Z" fill="#0A044B"/>
<path d="M50.8266 377.489C49.2186 375.976 49.3132 372.948 50.5428 371.245C52.6237 369.163 54.7993 367.176 56.9749 365.189C63.596 358.851 71.2577 353.931 78.9194 349.106C83.1758 347.213 83.7434 343.239 85.5406 339.455C86.7702 336.9 88.0944 334.63 89.5133 332.264C90.8375 330.372 95.4724 319.965 96.702 326.871C96.7966 328.196 96.5129 329.615 95.2831 330.372C93.5806 332.738 92.2563 335.386 90.8375 337.941C87.9053 342.293 86.6757 347.497 84.1217 351.944C77.5952 357.905 69.1767 361.5 62.6502 367.554C59.0558 370.677 55.4614 373.894 52.1508 377.3C51.7725 377.584 51.2049 377.773 50.8266 377.489Z" fill="#0A044B"/>
<path d="M69.8382 381.842C70.0274 381.842 70.2166 381.747 70.3112 381.653C70.122 381.747 70.0274 381.842 69.8382 381.842ZM69.9329 393.385C65.6763 390.546 66.7168 384.301 67.7574 380.044C68.1357 378.719 68.2303 376.827 69.5545 376.071C74.8514 377.205 65.298 388.748 72.9597 387.613C77.1216 386.667 80.6213 383.828 84.1211 381.558C89.1343 378.151 94.1475 374.745 99.1607 371.245C101.714 369.258 105.214 367.839 107.106 365.284C108.053 361.5 108.431 357.526 108.998 353.647C109.471 351.566 111.268 324.223 115.146 333.4C115.714 338.036 113.538 342.672 113.349 347.402C112.971 350.43 112.687 353.458 112.309 356.58C111.078 362.636 111.93 370.866 105.782 374.272C98.404 379.192 91.1207 384.207 83.6481 388.938C79.5808 391.208 74.8515 395.277 69.9329 393.385Z" fill="#0A044B"/>
<path d="M58.1105 385.247C56.5025 384.207 56.5971 381.462 57.4484 379.949C60.286 375.691 63.4075 371.623 66.9072 367.839C69.7448 364.338 71.0691 371.245 68.7045 372.474C65.1101 376.164 62.1778 380.516 59.151 384.774C58.9617 385.153 58.5834 385.436 58.1105 385.247Z" fill="#0A044B"/>
<path d="M227.235 361.689C221.654 360.743 217.114 356.77 212.858 353.269C207.371 348.727 207.561 340.685 210.02 334.63C211.722 330.373 213.709 326.115 215.979 322.047C217.681 319.019 219.479 322.898 219.29 324.79C219.384 327.723 217.114 329.9 216.074 332.548C215.222 334.252 214.466 336.049 213.614 337.847C212.858 340.023 211.155 342.672 212.763 344.848C215.79 348.254 219.763 350.809 223.64 353.079C229.6 356.863 233.384 350.619 237.072 346.835C246.815 335.955 254.855 323.655 262.895 311.355C269.138 300.285 288.056 279.376 285.597 267.076C284.556 263.765 281.624 261.494 279.165 259.224C275.57 256.386 272.165 253.358 268.854 250.141C266.206 247.587 263.084 245.221 260.72 242.383C260.815 242.005 260.814 241.72 260.908 241.342C261.003 241.059 261.098 240.68 261.193 240.396C261.571 239.923 262.044 239.45 262.517 238.977C262.611 238.977 262.706 239.072 262.8 239.072C263.179 239.166 263.557 239.167 263.841 239.26C265.165 240.586 266.489 241.91 267.908 243.046C273.772 248.911 281.151 253.263 286.353 259.792C295.244 276.16 279.921 293.379 271.786 306.814C265.165 316.37 238.302 361.878 227.425 361.878C227.425 361.784 227.33 361.689 227.235 361.689Z" fill="#0A044B"/>
<path d="M182.494 413.821C176.345 410.225 178.994 397.641 179.656 391.681C180.791 385.437 183.156 379.381 185.899 373.611C191.763 359.986 201.884 358.755 210.965 349.673C211.816 348.727 212.384 345.51 213.897 347.875C215.599 351.849 211.911 355.634 208.979 357.999C203.398 362.635 196.588 365.757 192.142 371.624C185.426 381.463 181.358 393.763 182.21 405.684C183.345 409.941 187.412 404.643 187.79 402.467C188.547 401.047 188.075 396.507 190.629 397.263C194.222 400.764 188.358 415.901 182.494 413.821Z" fill="#0A044B"/>
<path d="M195.925 413.821C192.805 412.023 195.83 403.129 195.83 399.818C196.115 398.209 195.737 394.898 198.006 394.992C201.128 397.074 198.291 404.265 198.291 407.481C197.818 409.279 198.574 413.726 195.925 413.821Z" fill="#0A044B"/>
<path d="M206.141 414.861C204.723 414.199 204.628 412.212 204.723 410.887C205.858 401.805 205.385 392.154 209.168 383.639C211.344 379.476 214.182 375.596 216.546 371.529C219.573 366.42 221.749 360.837 224.871 355.823C227.33 354.404 227.518 359.891 226.195 361.027C223.546 366.325 221.181 371.812 218.249 377.016C215.978 381.084 213.236 384.869 211.155 389.126C208.79 396.412 209.074 404.359 208.128 411.928C208.033 413.063 207.655 415.145 206.141 414.861Z" fill="#0A044B"/>
<path d="M351.525 333.494C347.647 337.942 343.958 342.955 338.566 345.605C339.796 328.764 345.945 312.774 351.147 296.974C352.092 294.136 352.85 291.203 353.795 288.269C354.836 284.485 357.389 280.133 355.403 276.254C354.268 273.983 344.431 274.646 341.498 274.078C326.27 273.132 310.946 272.375 295.718 272.942C294.015 273.321 285.975 273.037 285.691 274.551C284.84 276.348 285.124 280.133 287.866 279.471C309.243 278.052 330.715 279.944 352.092 281.457C346.133 301.894 337.052 321.762 335.066 343.145C335.066 344.186 334.878 345.51 334.783 346.835C331.661 347.497 328.446 348.16 325.324 348.633C315.109 350.336 304.704 351.377 294.299 352.323C292.313 352.606 290.137 352.228 288.339 352.984C285.691 355.729 286.259 360.27 286.259 363.865C288.246 382.787 290.137 402.183 289.853 421.39C289.569 431.229 289.664 440.406 288.718 450.341C288.434 452.139 288.151 454.599 289.664 455.923C294.015 458.667 292.691 428.675 293.259 424.891C293.542 409.279 292.596 393.574 291.178 378.057C290.705 371.812 289.097 365.473 289.569 359.135C289.569 358.945 313.311 356.58 315.582 356.297C323.621 355.066 332.04 354.971 339.986 352.796C345.66 351.282 350.674 344.469 353.701 339.739C354.646 338.225 354.646 336.144 354.079 334.441C353.795 333.021 352.282 332.075 351.525 333.494Z" fill="#0A044B"/>
<path d="M325.326 348.636C325.326 348.538 325.424 348.538 325.326 348.636C325.424 348.538 325.326 348.636 325.326 348.636Z" fill="#0A044B"/>
<path d="M33.8003 277.673C31.814 276.443 31.9086 272.942 33.0437 271.05C36.7326 266.32 40.6107 261.589 44.1105 256.669C47.7049 251.749 50.8262 246.545 54.2315 241.437C58.3934 235.287 62.7445 229.231 66.4334 222.798C68.7036 218.824 70.9737 214.756 73.433 210.971C74.8518 209.174 76.9328 204.254 79.7704 206.808C85.5402 212.863 93.6749 222.041 101.526 224.785C102.85 224.406 103.323 226.298 103.323 227.245C103.795 239.355 80.7163 215.323 78.257 212.485C74.0951 217.122 71.4466 223.46 68.136 228.853C65.0146 234.341 61.4202 239.45 57.9205 244.653C52.8127 252.317 48.1778 260.265 42.5025 267.55C40.1378 270.672 37.6785 273.794 35.2192 276.916C34.8408 277.484 34.3679 277.957 33.8003 277.673Z" fill="#0A044B"/>
<path d="M73.0557 353.174C72.4882 352.795 72.1098 352.039 72.0153 351.376C70.7856 346.456 69.4613 341.537 67.948 336.712C64.3536 324.506 58.7729 313.153 51.7733 302.556C46.9493 295.271 41.6523 288.364 35.8825 281.741C31.7205 277.389 28.6937 272.186 28.2207 266.131C27.7478 262.062 26.5182 257.994 27.0857 253.831C27.1803 253.169 27.7478 252.317 28.4099 252.317C28.5045 252.411 28.5991 252.412 28.5991 252.506C28.7882 252.696 28.9774 252.79 29.1666 252.979C29.8287 254.02 29.545 255.344 29.7341 256.385C30.8693 261.779 30.4909 268.023 34.2744 272.469C42.1253 281.458 49.9761 290.446 56.3135 300.664C60.9484 307.949 65.0157 315.424 67.948 323.56C68.8938 327.061 79.3931 353.079 73.6232 353.079C73.434 353.268 73.2449 353.268 73.0557 353.174Z" fill="#0A044B"/>
<path d="M68.892 478.724C67.284 475.129 68.419 470.871 68.1353 466.992C68.1353 457.625 68.6083 448.164 69.6487 438.798C70.9729 426.593 73.9052 414.482 74.4728 402.183C74.8511 398.304 73.716 394.236 74.7565 390.45C76.1753 388.085 77.5942 391.491 77.2159 392.91C78.7292 413.725 72.2026 433.878 71.9188 454.693C71.7297 460.653 71.7297 466.709 71.7297 472.669C71.8243 474.466 71.9188 481.657 68.892 478.724Z" fill="#0A044B"/>
<path d="M368.454 288.459C366.563 285.053 366.847 280.7 366.374 276.821C365.901 270.483 365.806 264.144 366.09 257.899C367.13 233.678 373.847 210.592 380.562 187.602C383.399 176.91 387.183 165.747 384.913 154.582C379.333 134.998 365.995 113.804 372.144 93.0842C373.562 88.4482 378.386 86.0827 382.075 90.0564C387.278 96.3954 387.372 106.424 388.318 114.277C388.507 115.791 387.183 119.292 385.48 117.116C384.345 115.223 384.913 112.953 384.44 110.871C383.778 106.708 383.399 102.451 381.886 98.4771C380.94 95.5441 376.494 93.4626 375.076 97.0579C373.467 101.505 373.94 106.33 374.792 110.871C377.819 123.55 382.832 135.754 387.278 147.96C390.683 158.367 389.265 169.626 386.616 180.128C379.711 206.335 370.347 232.259 369.306 259.602C369.117 266.887 369.211 274.267 369.968 281.553C370.062 283.728 371.481 285.904 370.347 288.08C369.968 288.743 368.927 289.216 368.454 288.459Z" fill="#0A044B"/>
<path d="M389.736 98.2882C389.642 97.6259 389.642 96.869 389.831 96.1121C389.926 95.7337 390.114 95.2606 390.399 94.8821C393.331 92.5168 396.074 89.9622 398.249 87.2184C401.939 82.8663 404.776 77.1895 409.978 74.4457C415.37 71.5127 420.289 85.5155 415.276 85.1369C413.857 83.8124 414.235 80.8796 411.871 80.3119C406.952 80.9742 403.357 88.543 400.046 91.9491C397.587 94.9767 394.655 97.6258 391.534 99.9909C390.494 100.748 389.926 98.9506 389.736 98.2882Z" fill="#0A044B"/>
<path d="M348.307 332.075C346.983 329.237 347.74 326.493 351.145 326.399C354.644 325.642 358.239 324.885 361.644 323.56C374.508 318.452 386.899 312.301 399.291 306.341C401.844 305.111 404.398 303.786 406.574 301.894C430.505 277.862 417.452 203.214 412.817 171.329C411.587 161.11 408.844 150.798 410.452 140.58C412.344 131.497 415.843 122.793 418.87 114.088C420.857 107.75 430.789 86.7456 415.938 98.7614C408.088 105.195 402.412 113.899 397.399 122.604C394.561 126.767 393.237 118.347 395.412 116.453C399.196 107.938 426.911 70.5669 427.667 97.8152C425.775 111.345 419.06 123.645 415.371 136.701C413.006 142.945 413.101 149.569 414.235 156.096C416.128 170.478 418.587 184.669 420.384 199.05C423.506 227.718 430.032 286.472 407.709 307.665C397.21 314.856 384.913 318.925 373.562 324.601C366.279 328.008 358.807 330.941 350.766 332.17C349.915 332.36 348.875 333.116 348.307 332.075Z" fill="#0A044B"/>
<path d="M397.589 111.25C396.265 110.588 396.36 108.696 395.603 107.56C394.752 105.668 393.522 103.776 394.184 101.694C394.279 100.558 395.697 99.2342 396.548 100.653C398.062 103.018 401.845 110.02 397.589 111.25Z" fill="#0A044B"/>
<path d="M405.249 102.074C403.83 100.275 402.223 93.8417 404.02 91.9495C405.249 90.8141 406.101 92.8957 406.101 93.9364C406.101 96.0179 407.52 98.0048 407.142 100.275C407.047 101.033 406.385 102.64 405.249 102.074Z" fill="#0A044B"/>
<path d="M412.628 99.4237C410.831 98.7614 408.467 89.3001 409.318 87.5024C409.602 85.5156 411.682 84.0964 412.723 86.3671C413.48 88.5433 413.668 90.8139 414.614 92.99C415.182 94.9769 415.371 99.3291 412.628 99.4237Z" fill="#0A044B"/>
<path d="M387.656 86.7456C386.238 84.191 387.562 81.1634 388.792 78.7035C390.494 75.5813 394.278 76.8113 396.737 78.2304C399.196 79.2712 401.183 81.3527 400.52 84.1911C400.425 85.1372 399.669 87.0294 398.439 86.2725C396.358 84.9479 391.251 80.7852 390.305 85.0427C390.021 86.3673 388.697 88.2593 387.656 86.7456Z" fill="#0A044B"/>
<path d="M43.6372 260.738C42.9751 260.359 42.2184 260.075 41.5562 259.697C41.9346 259.319 42.2184 258.94 42.5967 258.467C43.3534 257.52 44.11 256.481 44.7722 255.44C44.8668 255.345 44.9614 255.25 44.9614 255.062C45.6235 255.535 46.0019 256.669 46.0019 257.805C46.0019 259.319 45.4343 260.833 44.2047 260.833C44.0156 260.927 43.8264 260.833 43.6372 260.738Z" fill="#0A044B"/>
<path d="M125.931 3.10791H126.026C126.026 3.20356 126.026 3.29917 126.026 3.29917C125.931 3.20352 125.931 3.20356 125.931 3.10791Z" fill="#0A044B"/>
<path d="M126.12 46.6298C121.58 42.3723 119.404 35.5602 118.553 29.5996C118.553 29.6942 118.553 29.7888 118.553 29.8834C118.553 29.8834 118.553 29.8833 118.553 29.9779C118.175 24.585 117.702 18.6244 119.404 13.4207C120.066 12.3799 121.202 13.0425 121.39 14.0832C122.053 16.5431 121.107 19.0976 121.202 21.6522C120.917 27.2343 121.863 32.911 124.702 37.6416C125.553 39.7231 127.917 40.6692 128.201 42.8453C128.674 44.1698 128.107 48.0489 126.12 46.6298Z" fill="#0A044B"/>
<path d="M150.144 35.0871C147.684 34.8979 147.211 20.8952 146.171 17.9622C143.617 2.82425 137.752 9.35251 135.01 19.8545C134.064 22.6929 131.888 20.4222 131.983 18.4353C132.077 14.6508 133.969 10.9609 135.577 7.55488C145.509 -7.67773 149.387 15.0293 150.238 22.7876C149.955 25.4368 153.17 34.3303 150.144 35.0871Z" fill="#0A044B"/>
<path d="M125.647 24.5852C124.323 22.1252 124.985 18.7193 128.295 18.8139C129.525 18.7193 131.322 17.7731 131.89 19.3815C132.552 20.9898 132.741 24.0175 130.755 24.6799C129.147 24.4907 126.877 25.9097 125.647 24.5852Z" fill="#0A044B"/>
<path d="M129.617 34.6139C127.631 34.2355 127.82 31.0187 128.671 29.6941C129.807 28.5587 131.698 28.937 133.212 28.5586C135.01 29.1262 134.915 32.0594 134.252 33.4785C133.307 34.9924 131.037 34.2355 129.617 34.6139Z" fill="#0A044B"/>
<path d="M132.456 37.4524C132.551 37.4524 132.646 37.4524 132.74 37.4524C132.74 37.4524 132.741 37.4524 132.646 37.4524C132.646 37.3578 132.551 37.4524 132.456 37.4524ZM132.456 43.0344C131.227 42.4668 131.133 40.5746 131.321 39.3447C131.511 37.0739 134.16 36.6954 135.956 35.9385C137.943 35.9385 137.848 39.25 137.375 40.6691C137.092 41.9937 135.578 42.0885 134.538 42.4669C133.78 42.5615 133.119 43.1291 132.456 43.0344Z" fill="#0A044B"/>
<path d="M148.631 18.5301C145.793 17.2055 147.212 12.4748 149.577 11.1503C150.807 10.488 153.928 7.93351 154.969 9.54192C155.915 11.1503 156.01 13.9886 154.306 15.1239C153.455 15.4078 152.698 15.7863 151.942 16.0701C151.185 16.5432 150.144 16.9216 149.577 17.6784C149.483 18.0569 149.198 18.5301 148.631 18.5301Z" fill="#0A044B"/>
<path d="M150.617 28.3694C148.914 27.3287 149.104 24.4903 150.049 22.9766C151.563 21.2735 153.927 20.5167 156.009 19.7598C158.09 19.7598 157.995 23.1658 157.522 24.6796C156.86 26.5719 154.305 26.288 152.792 27.2341C151.941 27.4233 151.468 28.5586 150.617 28.3694Z" fill="#0A044B"/>
<path d="M260.814 241.815C260.814 241.627 260.908 241.437 260.908 241.342C261.002 241.059 261.097 240.68 261.192 240.396C261.57 239.923 262.043 239.45 262.516 238.977C262.61 238.977 262.705 239.072 262.8 239.072C263.178 239.166 263.556 239.26 263.935 239.26H264.029C263.368 240.68 262.422 241.815 261.192 241.815C261.097 241.815 261.002 241.815 260.814 241.815Z" fill="#0A044B"/>
<path d="M187.035 465.006C178.9 454.409 171.901 443.056 164.996 431.703C160.645 424.228 155.916 416.943 152.889 408.806C148.632 397.169 158.091 383.923 162.821 373.516C168.402 362.825 174.644 351.85 176.536 339.739C176.63 332.833 175.779 325.926 174.834 319.114C174.171 315.234 173.415 311.355 172.847 307.476C172.658 305.395 171.901 303.125 172.847 301.138C173.603 299.812 174.834 300.475 175.022 301.894C175.968 309.274 177.86 316.56 178.711 324.034C179.279 331.129 180.603 338.32 178.9 345.322C176.347 355.444 172.09 365.095 167.171 374.273C164.239 380.044 161.212 385.815 158.564 391.871C156.389 397.548 153.645 401.805 157.24 407.671C162.158 417.511 168.117 426.783 173.793 436.244C178.522 443.719 183.725 451.476 189.021 458.383C190.724 459.992 190.062 466.993 187.035 465.006Z" fill="#0A044B"/>
<path d="M196.397 357.905C194.127 354.498 194.978 349.579 195.262 345.7C196.492 337.847 201.316 331.13 202.734 323.371C203.775 317.978 203.302 312.491 204.153 307.098C205.194 303.787 207.559 305.679 207.18 308.329C206.329 314.667 206.991 321.195 205.383 327.535C203.964 335.198 198.856 341.916 198.573 349.768C198.478 351.755 199.992 358.946 196.397 357.905Z" fill="#0A044B"/>
<path d="M225.627 473.048C217.587 463.776 203.493 432.744 204.155 420.822C205.101 416.942 207.465 419.687 206.804 422.336C209.358 433.878 214.749 444.948 219.856 455.45C221.843 458.951 224.019 462.357 226.288 465.668C227.14 466.709 228.275 467.56 228.275 468.98C228.464 470.588 227.708 474.656 225.627 473.048Z" fill="#0A044B"/>
<path d="M163.955 345.132C159.225 343.808 161.306 332.075 166.319 332.548C171.143 334.819 169.157 344.375 163.955 345.132Z" fill="#0A044B"/>
<path d="M142.199 398.399C137.279 396.033 140.212 386.099 145.131 385.437C150.711 386.856 148.252 399.534 142.199 398.399Z" fill="#0A044B"/>
<path d="M160.927 454.599C155.82 453.463 154.968 443.812 159.698 441.732C165.657 440.879 168.589 452.612 162.535 454.126C162.157 454.504 161.495 454.693 160.927 454.599Z" fill="#0A044B"/>
<path d="M233.005 225.542C229.6 220.149 233.099 211.917 231.018 205.673C229.6 202.835 224.87 202.741 222.127 201.51C214.56 199.05 206.331 198.104 198.574 197.253C188.264 195.928 174.454 195.834 165.752 202.173C164.995 207.471 165.846 218.541 159.887 220.527C158.564 221.095 157.05 221.663 155.726 222.325C155.158 223.177 153.928 223.082 153.74 221.947C152.699 217.311 157.806 215.891 161.118 214.377C162.725 208.796 160.928 202.173 164.617 197.442C168.306 193.374 174.076 192.144 179.183 191.103C191.008 188.738 203.209 191.008 214.938 192.806C220.519 193.942 226.005 195.55 231.302 197.631C235.086 199.145 234.991 204.065 235.274 207.471C235.559 211.161 235.086 214.945 235.18 218.635C237.545 221.568 235.18 227.339 233.005 225.542Z" fill="#0A044B"/>
<path d="M245.962 232.543C240.098 229.421 267.624 204.443 271.029 201.037C272.731 199.807 274.15 197.347 276.231 196.969C278.123 198.293 276.988 201.7 275.569 203.024C269.232 208.607 263.083 214.283 257.219 220.433C254.003 223.839 250.692 227.528 247.76 231.124C247.287 231.786 246.814 232.732 245.962 232.543Z" fill="#0A044B"/>
<path d="M66.9074 196.591C64.6373 195.266 63.5022 192.334 61.6105 190.535C58.8674 186.656 54.8001 183.817 52.3407 179.938C49.4085 170.667 63.6914 150.893 67.475 141.337C73.434 129.321 78.9202 117.021 84.5954 104.817C88.6627 95.8283 92.4463 86.7454 96.3244 77.7572C98.6891 71.5127 103.135 66.2145 108.148 61.9569C113.162 57.9832 118.648 54.388 124.701 52.1173C129.052 50.6036 133.687 50.1304 137.944 48.2381C143.43 45.7782 148.727 42.5613 152.699 38.0199C154.402 36.9792 155.726 31.2079 157.807 34.0463C161.78 43.3183 142.011 55.2395 134.444 57.321C121.674 59.8756 109.472 66.6876 101.716 77.3788C96.7028 86.5562 93.3922 96.5852 88.9465 106.046C82.4199 120.144 75.9879 134.335 68.7992 148.149C64.259 157.61 58.0161 166.41 54.8001 176.438C58.9619 180.791 62.9347 185.143 66.4345 190.062C66.9074 190.913 67.6641 191.481 68.137 192.239C68.61 193.373 68.61 196.118 66.9074 196.591Z" fill="#0A044B"/>
<path d="M37.3952 268.874C26.2337 251.75 17.2478 232.354 9.77529 213.053C4.38374 198.009 -2.33202 182.02 2.11364 165.936C6.65389 149.568 16.6803 135.566 25.477 121.278C42.4083 93.5573 62.8395 67.5389 86.7704 45.5888C93.9591 36.0329 98.4994 24.6795 105.31 14.8398C108.62 9.7307 111.552 3.86477 117.133 0.931784C122.714 -3.23117 128.768 7.74398 123.471 10.4878C122.052 10.2039 122.147 8.21708 121.011 7.46018C116.755 5.37871 112.215 12.4746 110.134 15.5022C104.364 24.3958 99.1615 33.6679 94.0538 42.9398C89.3243 52.7795 79.8654 58.6454 72.8659 66.6875C51.8672 89.016 34.4629 114.278 18.6666 140.485C11.0996 153.163 2.01907 167.261 4.38379 182.682C9.11322 203.024 17.437 222.703 26.6121 241.437C30.0173 248.154 33.8953 254.682 37.206 261.494C37.8681 263.008 39.0978 264.333 38.9086 266.131C38.9086 267.171 38.6248 268.685 37.3952 268.874Z" fill="#0A044B"/>
<path d="M176.156 245.884C180.319 245.221 183.913 242.005 185.427 238.126C187.508 232.354 189.967 220.811 181.454 219.581C176.441 219.96 173.509 225.259 172.941 229.799C172.563 233.016 172.373 236.707 172.468 239.733C172.468 242.288 172.941 245.789 176.156 245.884ZM175.59 251.844C166.604 248.627 166.319 225.732 172.09 219.771C179.846 206.809 190.535 216.364 190.535 228.191C190.535 235.76 189.21 245.505 182.305 249.952C180.319 251.182 177.954 252.507 175.59 251.844Z" fill="#0A044B"/>
<path d="M209.262 250.52C218.532 250.33 221.559 239.355 219.856 231.786C218.154 221.663 212.762 222.136 208.316 230.462C207.087 232.638 205.857 234.908 205.006 237.274C204.723 239.545 204.628 241.815 204.723 244.085C204.723 247.208 205.289 250.614 209.262 250.52ZM208.789 256.764C198.291 255.061 200.466 229.137 206.614 223.839C208.316 220.906 210.965 217.878 214.56 217.878C221.37 218.541 223.356 231.03 223.64 236.517C224.302 245.411 219.668 258.183 208.789 256.764Z" fill="#0A044B"/>
<path d="M201.98 240.586C191.008 235.003 189.778 240.869 188.454 236.139C187.791 233.584 188.737 232.071 191.481 232.165C195.169 231.976 198.669 233.205 201.98 234.814C203.587 235.476 204.439 241.059 201.98 240.586Z" fill="#0A044B"/>
<path d="M189.777 263.576C186.561 263.198 184.953 260.359 186.277 257.52C186.939 256.481 188.075 257.615 188.926 257.805C191.952 258.561 195.547 257.805 197.722 255.534C196.871 252.128 195.358 248.722 195.263 245.127C195.168 244.086 196.114 242.666 197.061 243.802C197.817 244.653 198.006 245.694 198.195 246.83C198.668 249.101 199.52 251.371 200.181 253.641C202.925 260.832 196.114 264.522 189.777 263.576Z" fill="#0A044B"/>
<path d="M189.588 288.932C182.777 287.608 176.062 282.593 174.926 275.402C173.697 269.063 178.616 268.969 183.439 268.307C188.358 267.834 193.276 268.306 198.101 268.685C198.574 268.685 198.952 269.253 199.236 269.631C199.898 270.767 200.56 274.078 198.574 274.361C191.763 273.983 184.575 273.132 178.048 275.592C181.548 282.215 190.156 284.485 197.061 282.877C199.047 283.161 199.33 286.188 198.952 287.796C198.384 289.973 191.574 289.31 189.588 288.932Z" fill="#0A044B"/>
</g>
<defs>
<clipPath id="clip0_1_4513">
<rect width="428" height="480" fill="white"/>
</clipPath>
</defs>
</svg>
