<svg width="120" height="30" viewBox="0 0 120 30" fill="none" xmlns="http://www.w3.org/2000/svg">
<g clip-path="url(#clip0_1_4415)">
<path d="M17.3457 17.0303V0.878784H30.1275V4.49091H22.3851V7.02727H28.9578V10.6394H22.3851V13.2758H30.1275V17.0303H17.3457Z" fill="black"/>
<path d="M40.8183 17.0303L35.8365 8.47277V17.0303H31.085V0.851562H35.8365L41.3001 9.44853V0.851562H46.2122V17.0303H40.8183Z" fill="black"/>
<path d="M106.455 3.6727V1.403H107.461C107.617 1.39622 107.773 1.41673 107.922 1.46361C108.027 1.5051 108.116 1.58088 108.173 1.67876C108.238 1.78431 108.272 1.90626 108.27 2.03027C108.274 2.18115 108.217 2.32719 108.113 2.43633C107.981 2.56019 107.811 2.63508 107.631 2.64845C107.696 2.6773 107.758 2.71503 107.813 2.76058C107.908 2.8507 107.992 2.95252 108.061 3.06361L108.455 3.66967H108.089L107.785 3.19694C107.697 3.06159 107.624 2.96058 107.567 2.89391C107.525 2.83583 107.474 2.78471 107.416 2.74239C107.374 2.71482 107.328 2.69434 107.279 2.68179C107.224 2.67668 107.168 2.67668 107.113 2.68179H106.755V3.68785H106.452L106.455 3.6727ZM106.758 2.40603H107.404C107.512 2.41 107.621 2.39566 107.725 2.36361C107.797 2.33898 107.859 2.29099 107.901 2.22724C107.94 2.167 107.961 2.09638 107.961 2.02421C107.963 1.97452 107.953 1.92514 107.933 1.87959C107.913 1.83403 107.883 1.7934 107.846 1.76058C107.741 1.6834 107.612 1.64583 107.482 1.65451H106.755V2.40603H106.758Z" fill="black"/>
<path d="M107.349 4.45456C106.979 4.45456 106.617 4.34473 106.309 4.13895C106.001 3.93317 105.761 3.64069 105.619 3.2985C105.477 2.9563 105.44 2.57976 105.513 2.21648C105.585 1.85321 105.763 1.51952 106.025 1.25762C106.287 0.995711 106.621 0.817351 106.984 0.745091C107.347 0.672832 107.724 0.709918 108.066 0.85166C108.408 0.993402 108.701 1.23343 108.906 1.5414C109.112 1.84937 109.222 2.21144 109.222 2.58183C109.221 3.07827 109.024 3.55414 108.673 3.90517C108.322 4.2562 107.846 4.45376 107.349 4.45456ZM107.349 1.02123C107.041 1.02123 106.739 1.11276 106.482 1.28424C106.226 1.45572 106.026 1.69945 105.907 1.98462C105.789 2.26978 105.758 2.58357 105.819 2.88629C105.879 3.18902 106.028 3.4671 106.246 3.68535C106.464 3.9036 106.742 4.05224 107.045 4.11245C107.348 4.17267 107.661 4.14177 107.947 4.02365C108.232 3.90553 108.475 3.7055 108.647 3.44886C108.818 3.19222 108.91 2.89049 108.91 2.58183C108.908 2.16871 108.743 1.773 108.451 1.48116C108.158 1.18932 107.762 1.02506 107.349 1.02426V1.02123Z" fill="black"/>
<path d="M85.3427 17.0303L80.3609 8.47277V17.0303H75.6124L75.6094 0.851562H80.3609L85.8276 9.44853V0.851562H90.7366V17.0303H85.3427Z" fill="black"/>
<path d="M62.0098 17.0303V0.878784H74.7916V4.49091H67.0492V7.02727H73.6219V10.6394H67.0492V13.2758H74.7916V17.0303H62.0098Z" fill="black"/>
<path fill-rule="evenodd" clip-rule="evenodd" d="M16.4641 7.07273C16.0277 2.84848 13.2217 0 8.19744 0C3.60956 0 0.015625 3.30909 0.015625 8.6303C0.015625 13.9515 3.28835 17.3061 8.72168 17.3061C13.0611 17.3061 16.0974 14.7576 16.5732 10.5152H11.3944C11.1884 12.0909 10.3671 13.3 8.63078 13.3C5.9035 13.3 5.38835 11.1303 5.38835 8.82424C5.38835 5.65152 6.53078 4.0303 8.41865 4.0303C10.1096 4.0303 11.1823 5.3697 11.3399 7.08182H16.4641V7.07273Z" fill="black"/>
<path d="M61.325 0.842407H46.9766V4.92726H51.522V21.1212C51.7318 20.065 52.2385 19.0905 52.9826 18.3121C53.4546 17.7804 54.0378 17.359 54.6909 17.0778C55.3439 16.7966 56.0508 16.6624 56.7614 16.6848H56.7947V4.92726H61.319L61.325 0.842407Z" fill="black"/>
<path d="M56.5546 17.3727C54.6243 17.3727 52.9971 18.9909 52.6152 21.1242H56.8152V17.3909H56.791C56.7061 17.3818 56.6334 17.3727 56.5546 17.3727Z" fill="black"/>
<path d="M104.391 17.0303H91.6094V0.878784H104.391V4.49091H96.6518V7.0303H103.225V10.6394H96.6518V13.2758H104.391C104.391 13.2758 104.391 16.7697 104.391 17.0303Z" fill="black"/>
<path d="M65.4697 22.3334C65.4697 24.4273 63.897 26.197 62.0394 26.197C60.4515 26.197 59.3818 25.0304 59.3818 23.2758C59.3818 21.097 60.9303 19.4546 62.994 19.4546C64.4121 19.4516 65.4697 20.6728 65.4697 22.3334ZM60.3182 23.4304C60.3182 24.694 61.0273 25.5243 62.1121 25.5243C63.4788 25.5243 64.5364 24.091 64.5364 22.2243C64.5364 20.9455 63.8909 20.1304 62.8727 20.1304C61.4212 20.1243 60.3212 21.5425 60.3212 23.4273L60.3182 23.4304Z" fill="black"/>
<path d="M70.9513 20.8182H70.7179C70.7141 20.733 70.6932 20.6494 70.6565 20.5724C70.6197 20.4954 70.5678 20.4266 70.5039 20.3701C70.44 20.3135 70.3654 20.2704 70.2845 20.2433C70.2037 20.2162 70.1181 20.2056 70.0331 20.2122C69.74 20.2205 69.4582 20.3272 69.2331 20.5152C69.0531 20.6442 68.8998 20.8068 68.7816 20.994C68.5876 21.297 68.524 21.4728 68.3816 22.2061L67.621 26.0819H66.6543L67.6876 20.8182L67.7513 20.5516C67.7672 20.4727 67.7763 20.3926 67.7785 20.3122C67.7785 20.0091 67.6604 19.9182 67.3149 19.9182H67.224L67.2876 19.6364L68.927 19.4546L68.6543 20.8182C69.0664 19.9607 69.7634 19.4546 70.524 19.4546C70.7841 19.4575 71.0401 19.5196 71.2725 19.6364L70.9513 20.8182Z" fill="black"/>
<path d="M72.0754 28.0636C72.0475 28.1887 72.0262 28.3151 72.0118 28.4424C72.0118 28.6818 72.0633 28.7242 72.4361 28.8364L72.3845 29.0606H70.4209L70.4603 28.8364C70.5539 28.8312 70.6456 28.8075 70.73 28.7667C70.9361 28.6697 70.9997 28.5697 71.0664 28.2333L72.5118 20.8182L72.5633 20.5515C72.5845 20.4736 72.5937 20.3928 72.5906 20.3121C72.5906 20.0091 72.4876 19.9182 72.1391 19.9182H72.0482L72.0997 19.6364L73.7512 19.4545L73.5421 20.4758C73.6779 20.299 73.8335 20.1384 74.0057 19.997C74.4824 19.6491 75.0551 19.4575 75.6451 19.4485C76.9482 19.4485 77.8906 20.4879 77.8906 21.9364C77.8906 24.3939 75.9148 26.1788 73.1815 26.1788C72.9349 26.1796 72.6886 26.1603 72.4451 26.1212L72.0754 28.0636ZM72.6815 25.5061C72.8754 25.5061 73.0421 25.5061 73.1845 25.5061C75.4542 25.5061 76.8603 24.1727 76.8603 22.0364C76.8603 20.8424 76.2542 20.1121 75.2603 20.1121C74.5785 20.1121 73.9573 20.4909 73.4027 21.2212L72.5633 25.4909H72.6785L72.6815 25.5061Z" fill="black"/>
<path d="M85.0782 22.3334C85.0782 24.4273 83.5025 26.197 81.6449 26.197C80.057 26.197 78.9873 25.0304 78.9873 23.2758C78.9873 21.097 80.5358 19.4546 82.5994 19.4546C84.0206 19.4516 85.0782 20.6728 85.0782 22.3334ZM79.9267 23.4304C79.9267 24.694 80.6358 25.5243 81.7206 25.5243C83.0873 25.5243 84.1449 24.091 84.1449 22.2243C84.1449 20.9455 83.4994 20.1304 82.4812 20.1304C81.0267 20.1243 79.9297 21.5425 79.9297 23.4273L79.9267 23.4304Z" fill="black"/>
<path d="M90.5604 20.8182H90.3301C90.3263 20.733 90.3054 20.6494 90.2687 20.5724C90.2319 20.4954 90.18 20.4266 90.1161 20.3701C90.0522 20.3135 89.9776 20.2704 89.8967 20.2433C89.8159 20.2162 89.7304 20.2056 89.6453 20.2122C89.3522 20.2207 89.0705 20.3274 88.8453 20.5152C88.6638 20.6446 88.5094 20.8083 88.3907 20.997C88.1968 21.3 88.1332 21.4758 87.9907 22.2091L87.2301 26.0849H86.2695L87.2968 20.8182L87.3604 20.5516C87.3749 20.4725 87.383 20.3925 87.3847 20.3122C87.3847 20.0091 87.2695 19.9182 86.921 19.9182H86.8301L86.8938 19.6364L88.5332 19.4546L88.2665 20.8182C88.6786 19.9607 89.3756 19.4546 90.1362 19.4546C90.3963 19.4575 90.6523 19.5196 90.8847 19.6364L90.5604 20.8182Z" fill="black"/>
<path d="M92.1452 19.9697C92.8476 19.6125 93.627 19.4335 94.4149 19.4485C95.7452 19.4485 96.4785 19.9273 96.4785 20.797C96.4745 20.9764 96.4532 21.155 96.4149 21.3303L95.8088 24.4909C95.7671 24.666 95.7418 24.8445 95.7331 25.0243C95.7246 25.0849 95.7288 25.1467 95.7452 25.2057C95.7617 25.2647 95.7902 25.3196 95.8289 25.3671C95.8675 25.4146 95.9156 25.4536 95.97 25.4817C96.0245 25.5098 96.0841 25.5263 96.1452 25.5303C96.3391 25.5303 96.4816 25.4606 96.8301 25.1788L97.0513 25.4182C96.5604 25.9243 96.1088 26.1909 95.6967 26.1909C95.0907 26.1909 94.7422 25.7818 94.7179 25.0818C94.431 25.4298 94.0704 25.7098 93.6622 25.9016C93.254 26.0934 92.8083 26.1922 92.3573 26.1909C91.3634 26.1909 90.6543 25.5303 90.6543 24.6182C90.6543 22.9182 92.4725 21.7243 95.4149 21.5273C95.457 21.367 95.4784 21.2021 95.4785 21.0364C95.4785 20.4606 94.9361 20.094 94.0604 20.094C93.7292 20.0894 93.4005 20.1512 93.0937 20.2758C92.7081 20.4175 92.3779 20.6787 92.1513 21.0212H91.9179L92.1452 19.9697ZM94.0179 22.3333C92.521 22.7121 91.6695 23.4697 91.6695 24.4273C91.6717 24.5594 91.7005 24.6897 91.754 24.8105C91.8076 24.9313 91.8848 25.0401 91.9812 25.1305C92.0775 25.2209 92.191 25.2911 92.315 25.3369C92.4389 25.3826 92.5708 25.4031 92.7028 25.397C93.1268 25.382 93.5423 25.2734 93.9195 25.079C94.2967 24.8847 94.6263 24.6093 94.8846 24.2727L95.2967 22.1243C94.867 22.1707 94.4401 22.2405 94.0179 22.3333Z" fill="black"/>
<path d="M100.466 19.5485H101.769L101.678 20.0122H100.375L99.5633 24.1516C99.5084 24.4108 99.478 24.6746 99.4724 24.9394C99.4681 25.0222 99.4817 25.105 99.5122 25.1821C99.5427 25.2592 99.5895 25.3288 99.6492 25.3863C99.709 25.4438 99.7804 25.4877 99.8586 25.5152C99.9369 25.5426 100.02 25.553 100.103 25.5455C100.324 25.5586 100.544 25.5018 100.732 25.3833C100.919 25.2648 101.065 25.0905 101.148 24.8849H101.354L101.151 25.9697C100.747 26.1357 100.313 26.2172 99.8754 26.2091C98.933 26.2091 98.4814 25.8303 98.4814 25.0697C98.4873 24.7902 98.5218 24.512 98.5845 24.2394L99.4118 20.0243H98.6511L98.7421 19.5607C98.9414 19.578 99.1418 19.5436 99.3239 19.4607C99.5421 19.3637 99.6966 19.0667 99.8027 18.5516L99.9814 17.6425L100.891 17.4031L100.466 19.5485Z" fill="black"/>
<path d="M112.106 22.3334C112.106 24.4273 110.53 26.197 108.672 26.197C107.084 26.197 106.015 25.0304 106.015 23.2758C106.015 21.097 107.563 19.4546 109.627 19.4546C111.045 19.4516 112.106 20.6728 112.106 22.3334ZM106.954 23.4304C106.954 24.694 107.663 25.5243 108.748 25.5243C110.115 25.5243 111.172 24.091 111.172 22.2243C111.172 20.9455 110.527 20.1304 109.509 20.1304C108.054 20.1243 106.957 21.5425 106.957 23.4273L106.954 23.4304Z" fill="black"/>
<path d="M115.36 20.4212C115.969 19.809 116.794 19.4607 117.657 19.4515C118.715 19.4515 119.424 20.0576 119.424 20.9667C119.401 21.3118 119.349 21.6543 119.269 21.9909L118.83 24.2515C118.764 24.5284 118.721 24.8101 118.7 25.094C118.7 25.1495 118.711 25.2046 118.732 25.2559C118.753 25.3072 118.785 25.3537 118.824 25.3929C118.864 25.432 118.91 25.463 118.962 25.484C119.013 25.505 119.068 25.5156 119.124 25.5152C119.385 25.4891 119.628 25.3697 119.809 25.1788L120.003 25.4303C119.88 25.5862 119.737 25.724 119.575 25.8394C119.277 26.0522 118.923 26.1743 118.557 26.1909C118.439 26.1914 118.322 26.1671 118.213 26.1197C118.104 26.0722 118.007 26.0026 117.927 25.9154C117.847 25.8281 117.786 25.725 117.748 25.6128C117.709 25.5006 117.695 25.3817 117.706 25.2637C117.718 25.0363 117.748 24.8103 117.797 24.5879L118.324 21.8606C118.376 21.6256 118.407 21.3862 118.415 21.1455C118.411 20.9976 118.377 20.852 118.316 20.7177C118.254 20.5833 118.165 20.4631 118.055 20.3643C117.945 20.2656 117.815 20.1904 117.675 20.1433C117.535 20.0963 117.387 20.0785 117.239 20.0909C116.756 20.1178 116.294 20.3007 115.924 20.6121C115.638 20.8358 115.382 21.0955 115.163 21.3849L114.254 26.0909H113.272L114.312 20.8182L114.363 20.5515C114.379 20.4726 114.388 20.3926 114.391 20.3121C114.391 20.0091 114.275 19.9182 113.939 19.9182H113.845L113.897 19.6364L115.548 19.4546L115.36 20.4212Z" fill="black"/>
<path d="M103.785 24.1516L103.682 24.6576C103.662 24.7501 103.653 24.8448 103.658 24.9394C103.658 25.3061 103.812 25.5303 104.07 25.5303C104.322 25.4904 104.556 25.3729 104.739 25.194L104.906 25.4061C104.738 25.6241 104.528 25.8061 104.289 25.9414C104.05 26.0768 103.785 26.1626 103.512 26.194C102.997 26.194 102.648 25.8 102.648 25.197C102.658 24.9032 102.701 24.6115 102.776 24.3273L103.461 20.8182L103.512 20.5516C103.533 20.4736 103.543 20.3929 103.539 20.3122C103.539 20.0091 103.436 19.9182 103.088 19.9182H102.997L103.048 19.6364L104.7 19.4546L103.785 24.1516Z" fill="black"/>
<path d="M56.0633 25.7334C53.9876 25.7334 52.5148 24.2183 52.5148 22.097C52.5154 21.7667 52.5458 21.4371 52.6057 21.1122C52.9967 18.991 54.6239 17.3607 56.5451 17.3607C56.6239 17.3607 56.6997 17.3607 56.7724 17.3607H56.7967C57.7057 17.4455 58.3118 17.9152 58.3118 18.5728C58.3145 18.6521 58.2996 18.731 58.2682 18.8038C58.2368 18.8767 58.1896 18.9416 58.13 18.994L58.3118 19.191L59.4603 18.091C58.8542 17.1183 58.033 16.697 56.8027 16.688H56.7694C56.0587 16.6655 55.3518 16.7997 54.6988 17.0809C54.0458 17.3621 53.4626 17.7835 52.9906 18.3152C52.2469 19.0928 51.7403 20.0661 51.53 21.1213C51.4608 21.4605 51.4243 21.8055 51.4209 22.1516C51.4209 23.5698 51.9512 24.7516 52.936 25.5243C53.7239 26.1577 54.6391 26.4334 55.9664 26.4334C56.705 26.466 57.4415 26.3314 58.1209 26.0395L58.3906 24.7213H58.133C57.83 25.3819 57.1209 25.7334 56.0633 25.7334Z" fill="black"/>
<path d="M105.057 16.9849C105.054 17.2311 104.96 17.4674 104.791 17.647C104.623 17.8266 104.393 17.9364 104.148 17.9546C104.066 17.9547 103.985 17.9381 103.909 17.906C103.834 17.8738 103.766 17.8267 103.709 17.7675C103.653 17.7083 103.608 17.6383 103.58 17.5616C103.551 17.4849 103.538 17.4031 103.542 17.3213C103.547 17.0759 103.642 16.8411 103.81 16.6621C103.978 16.4831 104.206 16.3725 104.451 16.3516C104.534 16.3478 104.616 16.3618 104.694 16.3926C104.771 16.4235 104.84 16.4705 104.898 16.5305C104.955 16.5905 104.999 16.6621 105.026 16.7405C105.054 16.8188 105.064 16.9022 105.057 16.9849Z" fill="black"/>
</g>
<defs>
<clipPath id="clip0_1_4415">
<rect width="120" height="30" fill="white"/>
</clipPath>
</defs>
</svg>
