<svg width="22" height="21" viewBox="0 0 22 21" fill="none" xmlns="http://www.w3.org/2000/svg">
<path fill-rule="evenodd" clip-rule="evenodd" d="M6.32084 2.48692C6.32084 1.22009 7.32977 0.162842 8.6093 0.162842H13.2247C14.5042 0.162842 15.5131 1.22009 15.5131 2.48692V3.31099H19.3785C20.6581 3.31099 21.667 4.36824 21.667 5.63506V18.2277C21.667 19.4945 20.6581 20.5517 19.3785 20.5517H2.45545C1.17592 20.5517 0.166992 19.4945 0.166992 18.2277V5.63506C0.166992 4.36823 1.17592 3.31099 2.45545 3.31099H6.32084V2.48692ZM7.82084 3.31099H14.0131V2.48692C14.0131 2.01597 13.6436 1.66284 13.2247 1.66284H8.6093C8.19037 1.66284 7.82084 2.01597 7.82084 2.48692V3.31099ZM2.45545 4.81099C2.03652 4.81099 1.66699 5.16412 1.66699 5.63506V12.7554H20.167V5.63506C20.167 5.16412 19.7975 4.81099 19.3785 4.81099H2.45545ZM20.167 14.2554H1.66699V18.2277C1.66699 18.6986 2.03652 19.0517 2.45545 19.0517H19.3785C19.7975 19.0517 20.167 18.6986 20.167 18.2277V14.2554ZM8.62853 10.3573C8.62853 9.94307 8.96432 9.60729 9.37853 9.60729H12.4555C12.8697 9.60729 13.2055 9.94307 13.2055 10.3573C13.2055 10.7715 12.8697 11.1073 12.4555 11.1073H9.37853C8.96432 11.1073 8.62853 10.7715 8.62853 10.3573Z" fill="black"/>
</svg>
